<svg xmlns="http://www.w3.org/2000/svg" width="94" height="100" style=""><rect id="backgroundrect" width="100%" height="100%" x="0" y="0" fill="none" stroke="none"/><g class="currentLayer" style=""><title>Layer 1</title><path d="M71.8900057220459,73.55363090240955 S63.4590057220459,9.003630902409553 37.7290057220459,0.13163090240955352 c-6.654,-2.662 8.43,35.934 8.43,35.934 S25.751005722045903,19.207630902409555 1.3500057220458985,19.207630902409555 c-6.654,0.8870000000000007 25.289,20.852 25.289,20.852 S-0.8659942779541024,40.503630902409554 0.021005722045898463,45.38363090240956 c0.8880000000000007,4.8790000000000004 31.94,11.534 31.94,11.534 s-9.759,7.098 -9.316,11.534 c0.44400000000000034,4.438 16.859,0 16.859,0 s-3.9939999999999998,9.317 1.774,11.978 c5.766,2.6630000000000003 20.852,-3.991 20.852,-1.3290000000000002 c0,2.66 -5.4350000000000005,9.76 -11.646,11.091 c-6.21,1.331 -7.8740000000000006,7.541 -7.8740000000000006,9.315 c0,1.775 6.654,-1.8840000000000003 9.315,-3.6580000000000004 c2.6630000000000003,-1.775 11.426,-5.436 17.857,-3.883 c6.432,1.554 14.085,-5.324 15.86,-13.752 c1.774,-8.431000000000001 5.877,-6.878 7.041,-7.044 c1.165,-0.1660000000000002 2.276,-2.1630000000000003 -2.1630000000000003,-2.1630000000000003 c-4.4350000000000005,0 -2.606,-2.826 -6.154,-4.159 c-3.549,-1.332 -9.038,-0.5 -12.476,8.706 z" id="svg_1" class="" fill="#169af8" fill-opacity="1" stroke="#ffffff" stroke-opacity="1"/><path d="M72.7440057220459,66.40863090240956 s15.159,-19.755 13.317,-43.191 C84.22200572204589,-0.2183690975904467 76.7350057220459,-4.370369097590446 77.2060057220459,10.404630902409554 l0.47200000000000025,14.777 s-8.301,-11.776 -11.392,-10.983 c-3.091,0.792 0.6640000000000008,7.7650000000000015 2.815,14.546 c2.154,6.783 -2.718,-2.121 -4.167,-2.599 c-1.447,-0.47900000000000026 -1.54,2.882 1.991,12.625 c3.534,9.742 5.819,27.638 5.819,27.638 z" id="svg_2" class="" fill-opacity="1" fill="#169af8" stroke-opacity="1" stroke="#ffffff"/></g></svg>